<svg width="398" height="88" viewBox="0 0 398 88" fill="none" xmlns="http://www.w3.org/2000/svg">
<mask id="mask0_361_379" style="mask-type:luminance" maskUnits="userSpaceOnUse" x="32" y="0" width="61" height="38">
<path d="M32.4805 0H92.4805V37.8177H32.4805V0Z" fill="white"/>
</mask>
<g mask="url(#mask0_361_379)">
<path d="M33.3963 11.5938C43.1307 7.96354 52.4693 3.30208 62.3026 0C66.3078 0.531249 69.912 2.72396 73.6932 4.16146C79.5995 6.82813 85.8286 8.79688 91.5109 11.9427C91.912 15.849 91.688 19.7812 91.7141 23.7083C82.5786 27.7396 73.5422 32.0469 64.3807 36.1042C62.4276 37.4167 60.4276 35.9792 58.5995 35.25C50.214 31.3906 41.8286 27.5156 33.3963 23.7083C33.3963 19.6771 33.3703 15.6458 33.3963 11.5938ZM86.0057 14.8177C79.6463 17.6875 73.3651 20.6875 67.0838 23.6563C65.0057 24.4635 62.7557 26.1302 60.5265 24.7188C53.3182 21.6458 46.3338 18.1146 39.2036 14.8906C39.1255 16.9323 39.0526 18.9479 38.9745 20.9896C46.787 24.5417 54.5943 28.0417 62.3547 31.6719C70.287 28.2448 78.1203 24.5417 85.9797 20.9115C86.0057 18.8958 86.0057 16.8542 86.0057 14.8177Z" fill="#6100FF"/>
</g>
<path d="M33.3717 35.8281L60.528 47.9948C61.5801 48.474 62.804 48.474 63.8561 47.9688L91.2884 35.349L91.5905 29.3281L63.8561 42.526C62.778 43.0313 61.554 43.0573 60.4551 42.5521L33.1738 30.1563L33.3717 35.8281Z" fill="#6100FF"/>
<path d="M33.3724 48.4482L60.5286 60.6201C61.5807 61.0941 62.8047 61.0941 63.8568 60.5941L91.2891 47.9691L91.5911 41.9482L63.8568 55.1514C62.7786 55.6566 61.5547 55.6774 60.4557 55.1774L33.1484 42.7816L33.3724 48.4482Z" fill="#6100FF"/>
<path d="M33.3724 59.6357L60.5286 71.8024C61.5807 72.2816 62.8047 72.2816 63.8568 71.7764L91.2891 59.1566L91.5911 53.1357L63.8568 66.3389C62.7786 66.8389 61.5547 66.8649 60.4557 66.3597L33.1484 53.9691L33.3724 59.6357Z" fill="#6100FF"/>
<path d="M115.94 42.3542C110.961 38.875 104.002 41.8229 99.471 37.5885C98.247 36.7083 97.0179 35.8021 95.7939 34.9219C96.346 38.9531 94.9918 44.6198 99.221 47.0625C103.653 47.9948 108.408 46.5833 112.69 48.349C119.471 51.625 120.07 62.4063 113.992 66.6875C110.263 69.9635 105.127 68.526 100.747 67.9479C97.4189 70.9479 94.2679 74.349 90.1637 76.2396C85.0335 78.4792 79.3512 76.8438 73.9918 77.625C70.4397 78.4271 67.0856 80.0677 63.4814 80.6198C59.0491 80.6458 54.872 78.7813 50.4918 78.4063C46.5387 78.3802 42.6064 79.4635 38.6533 79.0313C33.1741 78.099 29.4658 73.6146 24.8147 70.9948C19.8564 70.0417 13.8512 72.2813 9.87204 68.1771C4.1637 63.5885 5.71578 53.8646 11.872 50.4375C11.872 50.4375 11.8981 50.4115 11.945 50.3906C12.2731 50.1615 12.596 49.9844 12.8981 49.8333C13.0231 49.7865 13.1481 49.7083 13.2991 49.6823C13.4241 49.6354 13.5231 49.5833 13.6481 49.5573C13.8981 49.4583 14.2002 49.3802 14.4502 49.3281C14.5231 49.3073 14.6012 49.2813 14.7002 49.2813C16.5543 48.875 19.5075 48.7031 23.9345 49.5313C25.1377 49.7604 26.4658 50.0625 27.9137 50.4635L28.2887 39.4323C26.3147 40.7656 24.3356 40.7135 22.3616 41.5938C21.3356 42.0521 20.2054 42.25 19.1064 42.3281C13.5491 42.6302 7.74183 43.8646 4.11162 48.5C-1.41963 54.2448 -0.492549 62.8594 1.80953 69.8385C6.66891 76.3906 14.8252 78.8802 22.6845 77.875C26.6377 81.224 30.971 84.474 36.2002 85.4063C41.8564 86.3385 47.6116 84.9792 53.2679 86.0885C60.5804 87.2708 68.5856 88 75.2679 84.125C80.0491 84.099 84.8824 84.526 89.6116 83.6458C94.9449 82.4115 99.247 78.7813 103.429 75.4323C109.086 75.4792 115.565 75.6563 119.596 70.8958C128.382 63.2604 126.351 47.4427 115.94 42.3542Z" fill="#6100FF"/>
<path d="M145.642 59.3854C151.704 59.3854 156.954 55.974 159.553 50.9792L153.741 47.974C152.267 50.8802 149.257 52.8125 145.642 52.8125C140.496 52.8125 136.574 48.8385 136.574 43.6927C136.574 38.5469 140.496 34.5729 145.642 34.5729C149.257 34.5729 152.267 36.5104 153.741 39.4167L159.553 36.4063C156.954 31.4167 151.704 28 145.642 28C136.98 28 129.949 35.0312 129.949 43.6927C129.949 52.3542 136.98 59.3854 145.642 59.3854Z" fill="#400081"/>
<path d="M184.824 28.4116V40.6877H172.392V28.4116H165.668V58.9793H172.392V46.6512H184.824V58.9793H191.501V28.4116H184.824Z" fill="#400081"/>
<path d="M217.999 34.3179V28.4116H199.604V58.9793H217.999V53.0679H206.327V46.6512H216.317V40.7397H206.327V34.3179H217.999Z" fill="#400081"/>
<path d="M243.576 58.9793H250.763L239.758 28.4116H232.216L221.211 58.9793H228.393L230.279 53.2241H241.69L243.576 58.9793ZM232.06 47.62L235.987 35.4897L239.909 47.62H232.06Z" fill="#400081"/>
<path d="M267.885 28.4116H254.891V58.9793H261.615V46.5991H267.885C273.031 46.5991 277.005 42.7762 277.005 37.6304C277.005 32.5366 273.031 28.4116 267.885 28.4116ZM266.812 41.047H261.615V34.3179H266.812C268.953 34.3179 270.583 35.6929 270.583 37.6825C270.583 39.7189 268.953 41.047 266.812 41.047Z" fill="#400081"/>
<path d="M301.156 28.4116V40.6877H288.724V28.4116H282V58.9793H288.724V46.6512H301.156V58.9793H307.833V28.4116H301.156Z" fill="#400081"/>
<path d="M330.253 59.3854C338.967 59.3854 345.946 52.3542 345.946 43.6927C345.946 35.0312 338.967 28 330.253 28C321.592 28 314.561 35.0312 314.561 43.6927C314.561 52.3542 321.592 59.3854 330.253 59.3854ZM330.253 52.8125C325.107 52.8125 321.186 48.8385 321.186 43.6927C321.186 38.5469 325.107 34.5729 330.253 34.5729C335.451 34.5729 339.373 38.5469 339.373 43.6927C339.373 48.8385 335.451 52.8125 330.253 52.8125Z" fill="#400081"/>
<path d="M362.099 59.3854C367.807 59.3854 372.646 56.026 372.646 50.3177C372.646 39.0052 358.583 41.8073 358.583 36.5104C358.583 34.776 359.906 33.9635 361.536 33.9635C363.271 33.9635 365.005 34.9323 366.531 36.6146L371.016 32.3333C368.771 29.7344 365.359 28 361.589 28C356.75 28 351.807 30.9062 351.807 37.0208C351.807 47.4115 365.922 44.9167 365.922 50.2656C365.922 51.9479 364.495 53.0677 362.151 53.0677C359.349 53.0677 357.156 51.4896 356.036 49.0938L350.484 52.5573C352.469 56.3802 356.75 59.3854 362.099 59.3854Z" fill="#400081"/>
<path d="M397.464 28.4116H375.35V34.37H383.094V58.9793H389.771V34.37H397.464V28.4116Z" fill="#400081"/>
</svg>
