<svg width="1303" height="285" viewBox="0 0 1303 285" fill="none" xmlns="http://www.w3.org/2000/svg">
<mask id="mask0_372_508" style="mask-type:luminance" maskUnits="userSpaceOnUse" x="107" y="0" width="197" height="124">
<path d="M107.283 0H303.761V123.839H107.283V0Z" fill="white"/>
</mask>
<g mask="url(#mask0_372_508)">
<path d="M110.284 37.9653C142.161 26.0777 172.741 10.8131 204.942 0C218.057 1.73965 229.859 8.91998 242.242 13.6273C261.583 22.3596 281.981 28.8066 300.588 39.108C301.902 51.8996 301.168 64.7764 301.253 77.6362C271.338 90.8371 241.747 104.942 211.747 118.228C205.351 122.526 198.802 117.819 192.815 115.431C165.356 102.793 137.897 90.1037 110.284 77.6362C110.284 64.4353 110.199 51.2344 110.284 37.9653ZM282.561 48.5226C261.736 57.9202 241.167 67.7441 220.598 77.4657C213.793 80.1092 206.425 85.567 199.126 80.945C175.521 70.8823 152.65 59.3187 129.301 48.7614C129.045 55.4471 128.806 62.0476 128.55 68.7333C154.133 80.3651 179.7 91.8263 205.112 103.714C231.087 92.4915 256.739 80.3651 282.475 68.4775C282.561 61.877 282.561 55.1913 282.561 48.5226Z" fill="#6100FF"/>
</g>
<path d="M110.201 117.324L199.128 157.166C202.573 158.735 206.581 158.735 210.026 157.08L299.857 115.755L300.846 96.0391L210.026 139.257C206.496 140.912 202.488 140.997 198.889 139.343L109.553 98.7509L110.201 117.324Z" fill="#6100FF"/>
<path d="M110.202 158.65L199.129 198.509C202.574 200.061 206.582 200.061 210.027 198.424L299.858 157.081L300.847 137.365L210.027 180.601C206.497 182.255 202.489 182.323 198.89 180.686L109.469 140.094L110.202 158.65Z" fill="#6100FF"/>
<path d="M110.202 195.285L199.129 235.127C202.574 236.696 206.582 236.696 210.027 235.041L299.858 193.716L300.847 174L210.027 217.235C206.497 218.873 202.489 218.958 198.89 217.304L109.469 176.729L110.202 195.285Z" fill="#6100FF"/>
<path d="M380.583 138.695C364.278 127.301 341.492 136.955 326.653 123.089C322.645 120.206 318.62 117.239 314.612 114.356C316.42 127.557 311.986 146.114 325.835 154.113C340.349 157.166 355.92 152.544 369.94 158.325C392.146 169.053 394.107 204.358 374.204 218.377C361.992 229.105 345.176 224.398 330.832 222.505C319.934 232.329 309.615 243.466 296.175 249.657C279.376 256.991 260.768 251.635 243.218 254.194C231.587 256.82 220.603 262.193 208.8 264.001C194.286 264.086 180.608 257.98 166.264 256.752C153.319 256.667 140.442 260.214 127.497 258.799C109.555 255.746 97.4116 241.061 82.1812 232.482C65.9444 229.361 46.2795 236.695 33.2492 223.255C14.5565 208.229 19.639 176.387 39.7985 165.165C39.7985 165.165 39.8838 165.079 40.0373 165.011C41.1118 164.261 42.1692 163.681 43.1584 163.186C43.5677 163.033 43.9771 162.777 44.4717 162.691C44.881 162.538 45.2051 162.367 45.6144 162.282C46.433 161.958 47.4223 161.702 48.2409 161.532C48.4797 161.463 48.7355 161.378 49.0596 161.378C55.1313 160.048 64.8017 159.485 79.2988 162.197C83.2386 162.947 87.5877 163.937 92.3291 165.25L93.5571 129.126C87.0931 133.493 80.6121 133.322 74.1481 136.204C70.7882 137.705 67.0871 138.353 63.4884 138.609C45.2903 139.598 26.2736 143.641 14.3859 158.82C-3.7269 177.632 -0.691046 205.842 6.84745 228.696C22.7601 250.152 49.4689 258.304 75.2055 255.012C88.1506 265.979 102.341 276.622 119.464 279.675C137.986 282.727 156.833 278.276 175.355 281.909C199.301 285.78 225.515 288.168 247.397 275.479C263.054 275.394 278.881 276.792 294.367 273.91C311.832 269.868 325.92 257.98 339.615 247.013C358.138 247.167 379.355 247.747 392.555 232.158C421.328 207.155 414.676 155.358 380.583 138.695Z" fill="#6100FF"/>
<path d="M477.845 194.466C497.697 194.466 514.889 183.295 523.4 166.938L504.366 157.097C499.539 166.614 489.681 172.942 477.845 172.942C460.994 172.942 448.152 159.929 448.152 143.078C448.152 126.227 460.994 113.214 477.845 113.214C489.681 113.214 499.539 119.558 504.366 129.075L523.4 119.217C514.889 102.878 497.697 91.6899 477.845 91.6899C449.482 91.6899 426.457 114.715 426.457 143.078C426.457 171.441 449.482 194.466 477.845 194.466Z" fill="#400081"/>
<path d="M606.148 93.0386V133.238H565.436V93.0386H543.418V193.137H565.436V152.767H606.148V193.137H628.013V93.0386H606.148Z" fill="#400081"/>
<path d="M714.792 112.379V93.0386H654.553V193.137H714.792V173.779H676.571V152.767H709.284V133.409H676.571V112.379H714.792Z" fill="#400081"/>
<path d="M798.541 193.135H822.077L786.039 93.0366H761.343L725.305 193.135H748.824L754.998 174.289H792.367L798.541 193.135ZM760.831 155.937L773.691 116.215L786.534 155.937H760.831Z" fill="#400081"/>
<path d="M878.153 93.0386H835.6V193.137H857.618V152.596H878.153C895.004 152.596 908.017 140.077 908.017 123.227C908.017 106.546 895.004 93.0386 878.153 93.0386ZM874.639 134.415H857.618V112.379H874.639C881.649 112.379 886.988 116.882 886.988 123.397C886.988 130.066 881.649 134.415 874.639 134.415Z" fill="#400081"/>
<path d="M987.099 93.0386V133.238H946.388V93.0386H924.369V193.137H946.388V152.767H987.099V193.137H1008.96V93.0386H987.099Z" fill="#400081"/>
<path d="M1082.38 194.466C1110.91 194.466 1133.77 171.441 1133.77 143.078C1133.77 114.715 1110.91 91.6899 1082.38 91.6899C1054.02 91.6899 1030.99 114.715 1030.99 143.078C1030.99 171.441 1054.02 194.466 1082.38 194.466ZM1082.38 172.942C1065.53 172.942 1052.69 159.929 1052.69 143.078C1052.69 126.227 1065.53 113.214 1082.38 113.214C1099.4 113.214 1112.24 126.227 1112.24 143.078C1112.24 159.929 1099.4 172.942 1082.38 172.942Z" fill="#400081"/>
<path d="M1186.66 194.466C1205.35 194.466 1221.19 183.465 1221.19 164.772C1221.19 127.728 1175.14 136.904 1175.14 119.558C1175.14 113.879 1179.48 111.218 1184.81 111.218C1190.49 111.218 1196.17 114.391 1201.17 119.9L1215.86 105.88C1208.5 97.3694 1197.33 91.6899 1184.99 91.6899C1169.14 91.6899 1152.96 101.207 1152.96 121.23C1152.96 155.255 1199.18 147.086 1199.18 164.602C1199.18 170.111 1194.5 173.778 1186.83 173.778C1177.65 173.778 1170.47 168.61 1166.8 160.764L1148.62 172.106C1155.12 184.625 1169.14 194.466 1186.66 194.466Z" fill="#400081"/>
<path d="M1302.47 93.0366H1230.05V112.548H1255.41V193.135H1277.28V112.548H1302.47V93.0366Z" fill="#400081"/>
</svg>
